# xmcd
#
# Track frame offsets:
#	150
#	17018
#	33985
#	57961
#	74348
#	91386
#	110599
#	130243
#	152732
#	174297
#
# Disc length: 2536 seconds
#
# Revision: 1
# Processed by: cddbd v1.5.2PL0 Copyright (c) Steve Scherf et al.
# Submitted via: audiograbber 1.83.01
#
DISCID=7d09e60a
DTITLE=Joost de Lange Rock/Blues Experience - Magic Crow
DYEAR=2014
DGENRE=BluesRock
TTITLE0=Time
TTITLE1=Ready for Love
TTITLE2=Changes of Life
TTITLE3=Help Me
TTITLE4=Hurricane
TTITLE5=Magic Black Crow
TTITLE6=The Night Train
TTITLE7=Be Strong
TTITLE8=Midnight Eyes
TTITLE9=Party
EXTD=
EXTT0=
EXTT1=
EXTT2=
EXTT3=
EXTT4=
EXTT5=
EXTT6=
EXTT7=
EXTT8=
EXTT9=
PLAYORDER=
